<svg width="58" height="59" viewBox="0 0 58 59" fill="none" xmlns="http://www.w3.org/2000/svg">
<path d="M55.7424 17.8001C54.287 14.3265 52.1697 11.1693 49.5085 8.50437C46.8553 5.83481 43.7035 3.71235 40.2323 2.2575C36.6762 0.759879 32.8555 -0.00779951 28.997 5.97398e-05H28.8672C24.9427 0.0195204 21.1478 0.797947 17.5736 2.32885C14.1321 3.79862 11.0099 5.92485 8.38163 8.5887C5.74621 11.2476 3.65316 14.3938 2.21909 17.852C0.730447 21.4481 -0.0238543 25.3056 0.000574942 29.1975C0.0200356 33.6994 1.09686 38.1689 3.10779 42.1648V52.0249C3.10779 53.6726 4.44409 55.0089 6.08528 55.0089H15.9324C19.9469 57.0346 24.3771 58.1005 28.8737 58.1226H29.0099C32.8891 58.1226 36.645 57.3701 40.1868 55.8976C43.6406 54.4601 46.7805 52.3624 49.4307 49.7221C52.1033 47.0689 54.205 43.9682 55.6775 40.5107C57.202 36.9299 57.9804 33.1221 57.9998 29.1911C58.0128 25.2405 57.2474 21.4068 55.7424 17.8001ZM16.0491 32.175C14.3366 32.175 12.9419 30.7803 12.9419 29.0613C12.9419 27.3423 14.3366 25.9476 16.0491 25.9476C17.7617 25.9476 19.1564 27.3423 19.1564 29.0613C19.1564 30.7803 17.7682 32.175 16.0491 32.175ZM28.997 32.175C27.2844 32.175 25.8897 30.7803 25.8897 29.0613C25.8897 27.3423 27.2844 25.9476 28.997 25.9476C30.7095 25.9476 32.1042 27.3423 32.1042 29.0613C32.1042 30.7803 30.7095 32.175 28.997 32.175ZM41.9448 32.175C40.2323 32.175 38.8376 30.7803 38.8376 29.0613C38.8376 27.3423 40.2323 25.9476 41.9448 25.9476C43.6573 25.9476 45.052 27.3423 45.052 29.0613C45.052 30.7803 43.6573 32.175 41.9448 32.175Z" fill="#62A052"/>
</svg>
