<svg width="24" height="24" viewBox="0 0 24 24" fill="none" xmlns="http://www.w3.org/2000/svg">
<path fill-rule="evenodd" clip-rule="evenodd" d="M14 5V5.28988C16.8915 6.15043 19 8.82898 19 12V17C19.5523 17 20 17.4477 20 18C20 18.5523 19.5523 19 19 19H5C4.44772 19 4 18.5523 4 18C4 17.4477 4.44772 17 5 17V12C5 8.82898 7.10851 6.15043 10 5.28988V5C10 3.89543 10.8954 3 12 3C13.1046 3 14 3.89543 14 5ZM7 17H17V12C17 9.23858 14.7614 7 12 7C9.23858 7 7 9.23858 7 12V17ZM14 19H10C10 20.1046 10.8954 21 12 21C13.1046 21 14 20.1046 14 19Z" fill="#8F92A1"/>
</svg>
