<svg width="40" height="40" viewBox="0 0 40 40" fill="none" xmlns="http://www.w3.org/2000/svg">
<rect width="40" height="40" rx="20" fill="#6EAC51"/>
<path d="M28.6013 25.9006C28.1331 24.8528 27.4536 23.901 26.6006 23.0983C25.7503 22.2932 24.743 21.6514 23.6343 21.2082C23.6244 21.2035 23.6145 21.2011 23.6046 21.1964C25.151 20.1412 26.1563 18.4222 26.1563 16.4829C26.1563 13.2701 23.401 10.6671 20.0003 10.6671C16.5996 10.6671 13.8443 13.2701 13.8443 16.4829C13.8443 18.4222 14.8497 20.1412 16.3961 21.1988C16.3862 21.2035 16.3762 21.2058 16.3663 21.2105C15.2543 21.6537 14.2564 22.2892 13.4 23.1006C12.5479 23.904 11.8685 24.8556 11.3993 25.903C10.9384 26.9283 10.6898 28.0277 10.6671 29.1415C10.6664 29.1665 10.671 29.1914 10.6807 29.2147C10.6904 29.238 10.7049 29.2593 10.7234 29.2772C10.7419 29.2951 10.7641 29.3093 10.7885 29.3191C10.8129 29.3288 10.8391 29.3338 10.8656 29.3338H12.355C12.4642 29.3338 12.5511 29.2517 12.5536 29.1509C12.6032 27.3405 13.3727 25.645 14.733 24.3599C16.1404 23.0303 18.0096 22.2986 20.0003 22.2986C21.9911 22.2986 23.8602 23.0303 25.2677 24.3599C26.6279 25.645 27.3974 27.3405 27.4471 29.1509C27.4496 29.254 27.5364 29.3338 27.6457 29.3338H29.135C29.1615 29.3338 29.1878 29.3288 29.2122 29.3191C29.2366 29.3093 29.2587 29.2951 29.2772 29.2772C29.2957 29.2593 29.3102 29.238 29.3199 29.2147C29.3296 29.1914 29.3343 29.1665 29.3336 29.1415C29.3088 28.0205 29.063 26.9301 28.6013 25.9006ZM20.0003 20.5164C18.861 20.5164 17.7886 20.0966 16.9819 19.3345C16.1752 18.5723 15.7309 17.5592 15.7309 16.4829C15.7309 15.4065 16.1752 14.3934 16.9819 13.6313C17.7886 12.8691 18.861 12.4494 20.0003 12.4494C21.1397 12.4494 22.212 12.8691 23.0187 13.6313C23.8255 14.3934 24.2698 15.4065 24.2698 16.4829C24.2698 17.5592 23.8255 18.5723 23.0187 19.3345C22.212 20.0966 21.1397 20.5164 20.0003 20.5164Z" fill="white"/>
</svg>
