<svg width="20" height="22" viewBox="0 0 20 22" fill="none" xmlns="http://www.w3.org/2000/svg">
<path d="M13.899 12.229L13.894 12.227C13.831 12.2 13.77 12.169 13.706 12.144C14.4203 11.5841 14.998 10.8692 15.3955 10.0532C15.7929 9.23723 15.9996 8.3416 16 7.434C15.9976 7.2233 15.9826 7.01292 15.955 6.804C15.9704 6.76424 15.9831 6.72348 15.993 6.682L16.274 4.285C16.3617 3.52753 16.1582 2.76505 15.7048 2.15196C15.2514 1.53888 14.582 1.12102 13.832 0.983004L13.042 0.840004C11.031 0.472765 8.97006 0.472765 6.95902 0.840004L6.16802 0.983004C5.41809 1.12102 4.74863 1.53888 4.29522 2.15196C3.84181 2.76505 3.63834 3.52753 3.72602 4.285L4.00602 6.682C4.01625 6.72351 4.02928 6.76427 4.04502 6.804C4.01749 7.01292 4.00246 7.2233 4.00002 7.434C4.00045 8.3416 4.20718 9.23723 4.60459 10.0532C5.00201 10.8692 5.57971 11.5841 6.29402 12.144C6.23002 12.169 6.16902 12.2 6.10602 12.227L6.10102 12.229C4.46395 12.9171 3.04093 14.0309 1.97969 15.4548C0.918455 16.8786 0.257698 18.5606 0.0660237 20.326C0.0411258 20.5876 0.120228 20.8486 0.286221 21.0523C0.452213 21.2561 0.69175 21.3863 0.953016 21.4148C1.21428 21.4434 1.47627 21.3679 1.68232 21.2047C1.88836 21.0416 2.02189 20.8039 2.05402 20.543C2.19475 19.2451 2.65302 18.0019 3.38834 16.9231C4.12365 15.8444 5.11337 14.9634 6.27002 14.358L9.29302 17.381C9.48055 17.5685 9.73486 17.6738 10 17.6738C10.2652 17.6738 10.5195 17.5685 10.707 17.381L13.73 14.358C14.8867 14.9634 15.8764 15.8444 16.6117 16.9231C17.347 18.0019 17.8053 19.2451 17.946 20.543C17.9726 20.7877 18.0885 21.014 18.2715 21.1786C18.4546 21.3432 18.6919 21.4345 18.938 21.435C18.9748 21.4349 19.0115 21.4329 19.048 21.429C19.1786 21.4148 19.3052 21.375 19.4204 21.3119C19.5356 21.2488 19.6373 21.1635 19.7196 21.0611C19.8019 20.9587 19.8632 20.841 19.9 20.7149C19.9367 20.5888 19.9483 20.4566 19.934 20.326C19.7423 18.5605 19.0814 16.8784 18.0199 15.4546C16.9585 14.0307 15.5353 12.917 13.898 12.229H13.899ZM5.71202 4.051C5.68298 3.79862 5.75088 3.54463 5.902 3.34041C6.05312 3.13619 6.27617 2.997 6.52602 2.951L7.31602 2.808C9.09066 2.48369 10.9094 2.48369 12.684 2.808L13.474 2.951C13.7239 2.997 13.9469 3.13619 14.098 3.34041C14.2492 3.54463 14.3171 3.79862 14.288 4.051L14.11 5.565H5.89002L5.71202 4.051ZM10 15.261L8.35002 13.61C9.4376 13.3762 10.5624 13.3762 11.65 13.61L10 15.261ZM10 11.435C8.96202 11.4338 7.96504 11.0296 7.21923 10.3077C6.47341 9.58572 6.03701 8.60241 6.00202 7.565H13.998C13.963 8.60241 13.5266 9.58572 12.7808 10.3077C12.035 11.0296 11.038 11.4338 10 11.435Z" fill="#7B8082"/>
</svg>
