<svg width="24" height="25" viewBox="0 0 24 25" fill="none" xmlns="http://www.w3.org/2000/svg">
<g opacity="0.6">
<path fill-rule="evenodd" clip-rule="evenodd" d="M7 3.68018C9.20914 3.68018 11 5.47104 11 7.68018C11 9.88931 9.20914 11.6802 7 11.6802C4.79086 11.6802 3 9.88931 3 7.68018C3 5.47104 4.79086 3.68018 7 3.68018ZM7 5.68018C5.89543 5.68018 5 6.57561 5 7.68018C5 8.78475 5.89543 9.68018 7 9.68018C8.10457 9.68018 9 8.78475 9 7.68018C9 6.57561 8.10457 5.68018 7 5.68018ZM17 3.68018C19.2091 3.68018 21 5.47104 21 7.68018C21 9.88931 19.2091 11.6802 17 11.6802C14.7909 11.6802 13 9.88931 13 7.68018C13 5.47104 14.7909 3.68018 17 3.68018ZM17 5.68018C15.8954 5.68018 15 6.57561 15 7.68018C15 8.78475 15.8954 9.68018 17 9.68018C18.1046 9.68018 19 8.78475 19 7.68018C19 6.57561 18.1046 5.68018 17 5.68018ZM11 17.6802C11 15.471 9.20914 13.6802 7 13.6802C4.79086 13.6802 3 15.471 3 17.6802C3 19.8893 4.79086 21.6802 7 21.6802C9.20914 21.6802 11 19.8893 11 17.6802ZM5 17.6802C5 16.5756 5.89543 15.6802 7 15.6802C8.10457 15.6802 9 16.5756 9 17.6802C9 18.7847 8.10457 19.6802 7 19.6802C5.89543 19.6802 5 18.7847 5 17.6802ZM17 13.6802C19.2091 13.6802 21 15.471 21 17.6802C21 19.8893 19.2091 21.6802 17 21.6802C14.7909 21.6802 13 19.8893 13 17.6802C13 15.471 14.7909 13.6802 17 13.6802ZM17 15.6802C15.8954 15.6802 15 16.5756 15 17.6802C15 18.7847 15.8954 19.6802 17 19.6802C18.1046 19.6802 19 18.7847 19 17.6802C19 16.5756 18.1046 15.6802 17 15.6802Z" fill="#1B1C31"/>
</g>
</svg>
