<svg width="28" height="29" viewBox="0 0 28 29" fill="none" xmlns="http://www.w3.org/2000/svg">
<g opacity="0.6">
<ellipse cx="13.1599" cy="10.5816" rx="7.4524" ry="3.19389" stroke="#1B1C31" stroke-width="2"/>
<path d="M5.70752 16.9694C5.70752 16.9694 5.70752 19.4639 5.70752 21.2279C5.70752 22.9918 9.04407 24.4218 13.1599 24.4218C17.2758 24.4218 20.6123 22.9918 20.6123 21.2279C20.6123 20.3474 20.6123 16.9694 20.6123 16.9694" stroke="#1B1C31" stroke-width="2" stroke-linecap="square"/>
<path d="M5.70752 10.5815C5.70752 10.5815 5.70752 14.1408 5.70752 15.9047C5.70752 17.6686 9.04407 19.0986 13.1599 19.0986C17.2758 19.0986 20.6123 17.6686 20.6123 15.9047C20.6123 15.0242 20.6123 10.5815 20.6123 10.5815" stroke="#1B1C31" stroke-width="2"/>
<path d="M23.8057 1L23.8057 7.38777" stroke="#1B1C31" stroke-width="2" stroke-linecap="round"/>
<path d="M26.9995 4.19385L20.6117 4.19385" stroke="#1B1C31" stroke-width="2" stroke-linecap="round"/>
</g>
</svg>
