<svg width="24" height="25" viewBox="0 0 24 25" fill="none" xmlns="http://www.w3.org/2000/svg">
<g opacity="0.6">
<path fill-rule="evenodd" clip-rule="evenodd" d="M20 1.68018H4C2.34315 1.68018 1 3.02332 1 4.68018V20.6802C1 22.337 2.34315 23.6802 4 23.6802H20C21.6569 23.6802 23 22.337 23 20.6802V4.68018C23 3.02332 21.6569 1.68018 20 1.68018ZM8 21.6802H4C3.44772 21.6802 3 21.2325 3 20.6802V19.5002C3.32067 19.6166 3.65886 19.6775 4 19.6802H8V21.6802ZM8 17.6802H4C3.44772 17.6802 3 17.2325 3 16.6802V15.5002C3.32067 15.6166 3.65886 15.6775 4 15.6802H8V17.6802ZM8 13.6802H4C3.44772 13.6802 3 13.2325 3 12.6802V4.68018C3 4.12789 3.44772 3.68018 4 3.68018H8V13.6802ZM14 21.6802H10V15.6802H14V21.6802ZM14 13.6802H10V3.68018H14V13.6802ZM21 20.6802C21 21.2325 20.5523 21.6802 20 21.6802H16V19.6802H20C20.3411 19.6775 20.6793 19.6166 21 19.5002V20.6802ZM21 16.6802C21 17.2325 20.5523 17.6802 20 17.6802H16V15.6802H20C20.3411 15.6775 20.6793 15.6166 21 15.5002V16.6802ZM21 12.6802C21 13.2325 20.5523 13.6802 20 13.6802H16V3.68018H20C20.5523 3.68018 21 4.12789 21 4.68018V12.6802ZM18 7.68018C17.4477 7.68018 17 8.12789 17 8.68018C17 9.23246 17.4477 9.68018 18 9.68018C18.5523 9.68018 19 9.23246 19 8.68018C19 8.12789 18.5523 7.68018 18 7.68018ZM6 9.68018C6.55228 9.68018 7 9.23246 7 8.68018C7 8.12789 6.55228 7.68018 6 7.68018C5.44772 7.68018 5 8.12789 5 8.68018C5 9.23246 5.44772 9.68018 6 9.68018Z" fill="#1B1C31"/>
</g>
</svg>
