<svg width="19" height="19" viewBox="0 0 19 19" fill="none" xmlns="http://www.w3.org/2000/svg">
<path opacity="0.6" d="M17.9343 15.2335C17.4661 14.1857 16.7866 13.2339 15.9336 12.4312C15.0833 11.6261 14.076 10.9843 12.9674 10.541C12.9574 10.5363 12.9475 10.534 12.9376 10.5293C14.484 9.47404 15.4893 7.75511 15.4893 5.81574C15.4893 2.60301 12.734 0 9.33333 0C5.93265 0 3.17735 2.60301 3.17735 5.81574C3.17735 7.75511 4.18266 9.47404 5.7291 10.5317C5.71917 10.5363 5.70924 10.5387 5.69932 10.5434C4.58727 10.9866 3.5894 11.6221 2.73302 12.4335C1.88089 13.2368 1.20148 14.1885 0.732327 15.2358C0.271427 16.2612 0.0228539 17.3606 6.20712e-05 18.4744C-0.000600455 18.4994 0.00404639 18.5243 0.0137289 18.5476C0.0234115 18.5709 0.0379337 18.5921 0.05644 18.6101C0.0749463 18.628 0.0970621 18.6422 0.121484 18.652C0.145907 18.6617 0.172141 18.6667 0.198642 18.6667H1.68799C1.79721 18.6667 1.88409 18.5846 1.88657 18.4838C1.93622 16.6734 2.70572 14.9779 4.06599 13.6928C5.47343 12.3631 7.34257 11.6315 9.33333 11.6315C11.3241 11.6315 13.1932 12.3631 14.6007 13.6928C15.9609 14.9779 16.7304 16.6734 16.7801 18.4838C16.7826 18.5869 16.8695 18.6667 16.9787 18.6667H18.468C18.4945 18.6667 18.5208 18.6617 18.5452 18.652C18.5696 18.6422 18.5917 18.628 18.6102 18.6101C18.6287 18.5921 18.6433 18.5709 18.6529 18.5476C18.6626 18.5243 18.6673 18.4994 18.6666 18.4744C18.6418 17.3534 18.396 16.263 17.9343 15.2335ZM9.33333 9.84925C8.19398 9.84925 7.12165 9.42948 6.31491 8.66734C5.50818 7.90519 5.06386 6.89213 5.06386 5.81574C5.06386 4.73936 5.50818 3.7263 6.31491 2.96415C7.12165 2.20201 8.19398 1.78224 9.33333 1.78224C10.4727 1.78224 11.545 2.20201 12.3518 2.96415C13.1585 3.7263 13.6028 4.73936 13.6028 5.81574C13.6028 6.89213 13.1585 7.90519 12.3518 8.66734C11.545 9.42948 10.4727 9.84925 9.33333 9.84925Z" fill="#1B1C31"/>
</svg>
