<svg width="24" height="31" viewBox="0 0 24 31" fill="none" xmlns="http://www.w3.org/2000/svg">
<g opacity="0.6">
<path fill-rule="evenodd" clip-rule="evenodd" d="M5 6.93018C3.34315 6.93018 2 8.60911 2 10.6802V20.6802C2 22.7513 3.34315 24.4302 5 24.4302H19C20.6569 24.4302 22 22.7513 22 20.6802V10.6802C22 8.60911 20.6569 6.93018 19 6.93018H5ZM7 9.43018H5C4.44772 9.43018 4 9.98983 4 10.6802V11.9302H7V9.43018ZM9 9.43018V11.9302H20V10.6802C20 9.98981 19.5523 9.43018 19 9.43018H9ZM7 14.4302H4V16.9302H7V14.4302ZM9 16.9302V14.4302H20V16.9302H9ZM7 19.4302H4V20.6802C4 21.3706 4.44772 21.9302 5 21.9302H7V19.4302ZM9 21.9302V19.4302H20V20.6802C20 21.3706 19.5523 21.9302 19 21.9302H9Z" fill="#1B1C31"/>
</g>
</svg>
