<svg width="30" height="30" viewBox="0 0 30 30" fill="none" xmlns="http://www.w3.org/2000/svg">
<g opacity="0.6">
<path d="M6.25 15.9496C6.25 14.2524 6.25 13.4038 6.59308 12.6578C6.93615 11.9119 7.58046 11.3597 8.86906 10.2551L10.1191 9.1837C12.4482 7.18729 13.6128 6.18909 15 6.18909C16.3872 6.18909 17.5518 7.18729 19.8809 9.1837L21.1309 10.2551C22.4195 11.3597 23.0638 11.9119 23.4069 12.6578C23.75 13.4038 23.75 14.2524 23.75 15.9496V21.25C23.75 23.6071 23.75 24.7856 23.0178 25.5178C22.2855 26.25 21.107 26.25 18.75 26.25H11.25C8.89298 26.25 7.71447 26.25 6.98223 25.5178C6.25 24.7856 6.25 23.6071 6.25 21.25V15.9496Z" stroke="#1B1C31" stroke-width="2"/>
<path d="M18.125 26.25V19.75C18.125 19.1977 17.6773 18.75 17.125 18.75H12.875C12.3227 18.75 11.875 19.1977 11.875 19.75V26.25" stroke="#1B1C31" stroke-width="2" stroke-linecap="round" stroke-linejoin="round"/>
</g>
</svg>
