<svg width="24" height="25" viewBox="0 0 24 25" fill="none" xmlns="http://www.w3.org/2000/svg">
<g opacity="0.6">
<path fill-rule="evenodd" clip-rule="evenodd" d="M9 4.68018C8.4477 4.68018 8 5.1279 8 5.68018V10.6802H3C2.4477 10.6802 2 11.1279 2 11.6802V19.6802C2 20.2325 2.4477 20.6802 3 20.6802H9H15H21C21.5523 20.6802 22 20.2325 22 19.6802V9.68018C22 9.1279 21.5523 8.68018 21 8.68018H16V5.68018C16 5.1279 15.5523 4.68018 15 4.68018H9ZM8 18.6802V12.6802H4V18.6802H8ZM10 18.6802H14V9.68018V6.68018H10V11.6802V18.6802ZM20 18.6802H16V10.6802H20V18.6802Z" fill="#1B1C31"/>
</g>
</svg>
