<svg width="21" height="21" viewBox="0 0 21 21" fill="none" xmlns="http://www.w3.org/2000/svg">
<g opacity="0.6">
<path fill-rule="evenodd" clip-rule="evenodd" d="M12.2373 19.4772L12.2483 19.467L12.2497 19.4655L14.12 17.5953C14.3014 17.4139 14.3743 17.1516 14.3116 16.9031C14.2759 16.7581 14.1921 16.576 14.0464 16.3793C13.8438 16.1061 13.4883 15.7593 13.0665 15.4197C12.4668 14.9374 11.7324 14.4653 11.1707 14.2234C10.8385 14.0799 10.5441 14.0136 10.3314 14.0136C10.0297 14.0136 9.75943 14.1994 9.6516 14.4813L9.06655 16.0084C9.06582 16.0084 9.0651 16.0084 9.06437 16.0077C8.95071 15.9939 8.82831 15.9567 8.69789 15.9057C8.27459 15.7389 7.7981 15.4278 7.32379 15.0423C6.42473 14.3116 5.53732 13.3112 5.04115 12.3947C4.85391 12.0479 4.70528 11.7273 4.68269 11.4534C4.68342 11.4534 6.01453 10.7 6.01453 10.7C6.24258 10.5703 6.38392 10.3284 6.38392 10.0654C6.38392 9.8534 6.31762 9.55905 6.17409 9.22609C5.93221 8.66509 5.46009 7.93068 4.97777 7.33106C4.63825 6.90921 4.29145 6.55366 4.01823 6.35112C3.82151 6.2054 3.63937 6.12162 3.49438 6.08592C3.24593 6.02326 2.98365 6.09612 2.80223 6.27753L0.931967 8.14779C0.184445 8.89459 -0.12083 10.2038 0.0431001 11.7047C0.26386 13.7214 1.29698 16.0893 2.80223 17.5953C4.30456 19.0976 6.66807 20.13 8.68259 20.3537C10.1813 20.5198 11.4898 20.2182 12.2381 19.4772H12.2373ZM3.38582 7.75509C3.53227 7.89643 3.7064 8.07494 3.84191 8.24397C4.18726 8.6731 4.52969 9.1831 4.74754 9.61515C4.76502 9.64939 4.78178 9.68218 4.79781 9.71424L3.64592 10.3656C3.48054 10.4596 3.35814 10.6148 3.30495 10.7976C3.16725 11.2741 3.22918 11.8767 3.49438 12.5295C3.98253 13.7302 5.17521 15.1742 6.40433 16.1731C7.14383 16.7742 7.89937 17.2113 8.52012 17.3811C9.12557 17.5457 9.64359 17.4729 10.0246 17.2142C10.1485 17.1304 10.2432 17.011 10.2964 16.8718L10.7671 15.642C10.7722 15.6449 10.7773 15.6471 10.7824 15.65C11.2144 15.8678 11.7244 16.2102 12.1535 16.5556C12.3226 16.6911 12.5011 16.8652 12.6424 17.0117L11.2129 18.4419C10.7197 18.9308 9.83156 19.0153 8.84361 18.9053C7.12853 18.7151 5.11183 17.8437 3.83244 16.5651C2.55087 15.2828 1.67949 13.2631 1.49152 11.5466C1.38369 10.5579 1.47039 9.6698 1.96218 9.178L3.38582 7.75509Z" fill="#1B1C31"/>
<path fill-rule="evenodd" clip-rule="evenodd" d="M9.48588 7.59689L8.05932 11.4015C7.94566 11.7039 8.04475 12.0441 8.30267 12.2387C8.55985 12.4332 8.91467 12.4347 9.17478 12.243L12.4213 9.84237C13.0851 10.0726 13.81 10.2001 14.5699 10.2001C17.8157 10.2001 20.3985 7.88177 20.3985 5.10005C20.3985 2.31834 17.8157 0 14.5699 0C11.3241 0 8.74127 2.31834 8.74127 5.10005C8.74127 6.00495 9.01012 6.85666 9.48588 7.59689ZM10.9846 7.74917C11.0727 7.51456 11.0341 7.25009 10.8811 7.05119C10.452 6.49018 10.1984 5.82062 10.1984 5.10005C10.1984 3.05639 12.1853 1.45716 14.5699 1.45716C16.9545 1.45716 18.9414 3.05639 18.9414 5.10005C18.9414 7.14372 16.9545 8.74295 14.5699 8.74295C13.861 8.74295 13.19 8.6016 12.594 8.34879C12.3565 8.24751 12.084 8.27957 11.8763 8.4333L10.288 9.60777C10.288 9.60704 10.9846 7.74917 10.9846 7.74917Z" fill="#1B1C31"/>
<path d="M12.3839 5.82862C12.7862 5.82862 13.1124 5.50242 13.1124 5.10004C13.1124 4.69766 12.7862 4.37146 12.3839 4.37146C11.9815 4.37146 11.6553 4.69766 11.6553 5.10004C11.6553 5.50242 11.9815 5.82862 12.3839 5.82862Z" fill="#1B1C31"/>
<path d="M14.5699 5.82862C14.9723 5.82862 15.2985 5.50242 15.2985 5.10004C15.2985 4.69766 14.9723 4.37146 14.5699 4.37146C14.1675 4.37146 13.8413 4.69766 13.8413 5.10004C13.8413 5.50242 14.1675 5.82862 14.5699 5.82862Z" fill="#1B1C31"/>
<path d="M16.7559 5.82862C17.1583 5.82862 17.4845 5.50242 17.4845 5.10004C17.4845 4.69766 17.1583 4.37146 16.7559 4.37146C16.3535 4.37146 16.0273 4.69766 16.0273 5.10004C16.0273 5.50242 16.3535 5.82862 16.7559 5.82862Z" fill="#1B1C31"/>
</g>
</svg>
