<svg width="72" height="73" viewBox="0 0 72 73" fill="none" xmlns="http://www.w3.org/2000/svg">
<circle cx="35.9279" cy="36.7817" r="35.8264" fill="#5B95EB"/>
<path d="M52.5568 40.1775C52.4833 40.0539 52.3703 39.9577 52.2354 39.9039L49.8372 38.9378L52.321 37.4984C52.635 37.3175 52.7406 36.9203 52.5568 36.6113C52.4833 36.4877 52.3703 36.3915 52.2354 36.3377L49.8372 35.3716L52.321 33.9322C52.538 33.8037 52.6609 33.5643 52.6373 33.3162C52.6182 33.0712 52.46 32.8577 52.2288 32.765L42.7877 28.9589L38.1363 27.0137C38.0608 26.9843 37.9804 26.969 37.8992 26.9683L30.3226 23.9338C30.1365 23.8578 29.9254 23.8698 29.7494 23.9662L19.5967 29.5814C19.2718 29.7424 19.141 30.1323 19.3046 30.4521C19.3793 30.598 19.5071 30.7108 19.6626 30.768L22.1135 31.7665L19.5967 33.1476C19.2801 33.324 19.1687 33.7196 19.3479 34.0313C19.4191 34.1551 19.5296 34.2524 19.6626 34.3082L22.1135 35.3068L19.6099 36.6879C19.2752 36.8282 19.1195 37.2092 19.2621 37.5386C19.3365 37.7103 19.4824 37.8421 19.6626 37.9004L22.1135 38.8924L19.6099 40.2735C19.2933 40.4499 19.1818 40.8456 19.361 41.1572C19.4323 41.2811 19.5428 41.3783 19.6758 41.4342L28.1945 44.9939C28.2257 45.0162 28.2588 45.0357 28.2934 45.0522L32.9513 46.9974L41.5162 50.5831C41.7089 50.6636 41.929 50.6492 42.1091 50.5442L52.321 44.6308C52.635 44.4499 52.7406 44.0527 52.5568 43.7437C52.4833 43.6201 52.3703 43.5239 52.2354 43.4701L49.8372 42.504L52.321 41.0646C52.635 40.8837 52.7405 40.4865 52.5568 40.1775ZM50.5026 37.0316L41.7204 42.1215L33.8671 38.8406V36.6815L41.5096 39.8781C41.5909 39.9121 41.6782 39.9298 41.7665 39.9299C41.8848 39.9299 42.0008 39.8986 42.1025 39.8392L48.4076 36.1887L50.5026 37.0316ZM50.529 33.4589L41.7204 38.5489L34.5852 35.5662L42.623 30.2817L50.529 33.4589ZM27.8717 43.4637L21.4085 40.7599L23.6288 39.5344L27.8783 41.311L27.8717 43.4637ZM27.8717 39.8975L21.4085 37.1937L23.6288 35.9553L27.8783 37.7319L27.8717 39.8975ZM27.8717 36.3313L21.4085 33.634L23.6288 32.4085L27.8783 34.1851L27.8717 36.3313ZM21.4085 30.0678L30.1183 25.2502L36.4365 27.7984L28.4778 33.0245L21.4085 30.0678ZM32.8393 35.1642C32.6577 35.285 32.5491 35.4867 32.5494 35.7024V45.4284L29.196 44.0278V34.1138L37.9255 28.3884L41.1736 29.6852L32.8393 35.1642ZM50.5026 44.164L41.7204 49.2475L33.8671 45.9666V43.8139L41.5096 46.9781C41.7023 47.0586 41.9224 47.0441 42.1025 46.9392L48.4076 43.2887L50.5026 44.164ZM41.7204 45.6813L33.8671 42.4004V40.2477L41.5162 43.4443C41.7089 43.5248 41.929 43.5103 42.1091 43.4054L48.4141 39.7549L50.5026 40.5978L41.7204 45.6813Z" fill="white"/>
</svg>
