<svg width="72" height="72" viewBox="0 0 72 72" fill="none" xmlns="http://www.w3.org/2000/svg">
<circle cx="35.9252" cy="35.8264" r="35.8264" fill="#FF8162"/>
<path d="M35.4489 32.5463C38.6606 32.5463 41.2643 29.7517 41.2643 26.3045C41.2643 22.8572 38.6606 20.0626 35.4489 20.0626C32.2372 20.0626 29.6335 22.8572 29.6335 26.3045C29.6335 29.7517 32.2372 32.5463 35.4489 32.5463Z" fill="white"/>
<path d="M47.0779 36.1133C49.3719 36.1133 51.2317 34.1172 51.2317 31.6549C51.2317 29.1926 49.3719 27.1965 47.0779 27.1965C44.7838 27.1965 42.9241 29.1926 42.9241 31.6549C42.9241 34.1172 44.7838 36.1133 47.0779 36.1133Z" fill="white"/>
<path d="M23.9348 36.1133C26.2289 36.1133 28.0886 34.1172 28.0886 31.6549C28.0886 29.1926 26.2289 27.1965 23.9348 27.1965C21.6407 27.1965 19.781 29.1926 19.781 31.6549C19.781 34.1172 21.6407 36.1133 23.9348 36.1133Z" fill="white"/>
<path d="M35.4479 34.3291C29.493 34.3291 24.6479 39.5294 24.6479 45.921C24.6479 46.4133 25.0202 46.8128 25.4787 46.8128H45.4171C45.8756 46.8128 46.2478 46.4133 46.2478 45.921C46.2478 39.5294 41.4028 34.3291 35.4479 34.3291Z" fill="white"/>
<path d="M25.3674 38.0892C24.859 37.9733 24.3422 37.8966 23.8172 37.8966C19.695 37.8966 16.3403 41.4972 16.3403 45.9218C16.3403 46.414 16.7125 46.8135 17.1711 46.8135H23.1393C23.0462 46.5335 22.9864 46.2357 22.9864 45.9218C22.9864 42.9953 23.877 40.2935 25.3674 38.0892Z" fill="white"/>
<path d="M47.0785 37.8966C46.5535 37.8966 46.0367 37.9733 45.5283 38.0892C47.0187 40.2935 47.9093 42.9953 47.9093 45.9218C47.9093 46.2357 47.8495 46.5335 47.7564 46.8135H53.7246C54.1832 46.8135 54.5554 46.414 54.5554 45.9218C54.5554 41.4972 51.2008 37.8966 47.0785 37.8966Z" fill="white"/>
</svg>
