<svg width="73" height="73" viewBox="0 0 73 73" fill="none" xmlns="http://www.w3.org/2000/svg">
<circle cx="36.288" cy="36.7371" r="35.8264" fill="#4ECBA1"/>
<g clip-path="url(#clip0_351_667)">
<path d="M27.1982 47.6074C27.094 47.5101 26.9495 47.4542 26.8021 47.4542C26.6548 47.4542 26.5103 47.5101 26.4061 47.6074C26.3019 47.7047 26.2419 47.8396 26.2419 47.9771C26.2419 48.1146 26.3018 48.2495 26.4061 48.3467C26.5103 48.4439 26.6548 48.4999 26.8021 48.4999C26.9495 48.4999 27.094 48.444 27.1982 48.3467C27.3024 48.2495 27.3623 48.1146 27.3623 47.9771C27.3623 47.8396 27.3024 47.7047 27.1982 47.6074Z" fill="white"/>
<path d="M48.7187 33.3978C48.6145 33.3005 48.4705 33.2446 48.3227 33.2446C48.1753 33.2446 48.0308 33.3005 47.9266 33.3978C47.8224 33.4951 47.7625 33.63 47.7625 33.7675C47.7625 33.905 47.8224 34.0399 47.9266 34.1371C48.0308 34.2343 48.1753 34.2903 48.3227 34.2903C48.4705 34.2903 48.6145 34.2344 48.7187 34.1371C48.8234 34.0399 48.8834 33.905 48.8834 33.7675C48.8834 33.63 48.8234 33.4951 48.7187 33.3978Z" fill="white"/>
<path d="M50.9322 23.9928C50.8272 23.8948 50.6848 23.8397 50.5363 23.8397L36.7658 23.8404C36.4567 23.8404 36.2061 24.0744 36.2061 24.3629V25.857L30.8999 27.184C30.6013 27.2587 30.4241 27.5452 30.5041 27.8239L33.2542 37.4029L30.8751 39.6233C30.5723 39.2107 30.0639 38.9393 29.4889 38.9393H24.1151C23.1891 38.9393 22.4358 39.6424 22.4358 40.5066V49.0227C22.4358 49.8869 23.1891 50.5901 24.1151 50.5901H29.4889C30.2756 50.5901 30.9374 50.0824 31.1188 49.3999L31.7843 49.9416C32.2982 50.3598 32.9565 50.5901 33.6382 50.5901H50.5364C50.8455 50.5901 51.0961 50.3562 51.0961 50.0677V24.3622C51.096 24.2236 51.0371 24.0907 50.9322 23.9928ZM30.0486 49.0227C30.0486 49.3108 29.7975 49.5452 29.4888 49.5452H24.115C23.8064 49.5452 23.5553 49.3108 23.5553 49.0227V40.5067C23.5553 40.2186 23.8064 39.9842 24.115 39.9842H26.2422V46.0028C26.2422 46.2913 26.4928 46.5253 26.802 46.5253C27.1111 46.5253 27.3617 46.2913 27.3617 46.0028V39.9842H29.4889C29.7975 39.9842 30.0487 40.2186 30.0487 40.5067V49.0227H30.0486ZM31.7304 28.0581L36.2061 26.9387V28.8747L35.8309 28.9686C35.6875 29.0045 35.5653 29.092 35.491 29.212C35.4168 29.332 35.3966 29.4746 35.4351 29.6084C35.6502 30.3577 35.1721 31.1306 34.3693 31.3314C34.2257 31.3673 34.1033 31.455 34.0291 31.5753C33.955 31.6955 33.935 31.8383 33.9738 31.9723L36.1558 39.5135H35.0323L34.4533 37.3994C34.4349 37.3321 34.4026 37.2701 34.3595 37.2161L31.7304 28.0581ZM36.2061 31.2707V35.6794L35.1851 32.1509C35.6116 31.9453 35.9606 31.6378 36.2061 31.2707ZM44.2482 49.5451H33.6381C33.227 49.5451 32.8299 49.4063 32.52 49.1541L31.1682 48.0537V40.8276L33.6121 38.5466L34.0553 40.1652C34.1187 40.3965 34.3419 40.5583 34.5977 40.5583L45.6033 40.5589C46.0355 40.5589 46.387 40.887 46.387 41.2904C46.387 41.6937 46.0355 42.0218 45.6033 42.0218H39.964C39.6549 42.0218 39.4042 42.2558 39.4042 42.5443C39.4042 42.8328 39.6549 43.0667 39.964 43.0667H47.3554C47.7876 43.0667 48.1391 43.3949 48.1391 43.7982C48.1391 44.2015 47.7876 44.5297 47.3554 44.5297H39.964C39.6549 44.5297 39.4042 44.7636 39.4042 45.0521C39.4042 45.3406 39.6549 45.5746 39.964 45.5746H46.1577C46.5898 45.5746 46.9414 45.9027 46.9414 46.306C46.9414 46.7094 46.5898 47.0375 46.1577 47.0375H39.964C39.6549 47.0375 39.4042 47.2715 39.4042 47.56C39.4042 47.8485 39.6549 48.0824 39.964 48.0824H44.2482C44.6804 48.0824 45.0319 48.4105 45.0319 48.8139C45.0319 49.217 44.6803 49.5451 44.2482 49.5451ZM49.9766 49.5451H49.9765H45.9819C46.0905 49.3219 46.1514 49.0744 46.1514 48.8137C46.1514 48.553 46.0905 48.3055 45.9819 48.0822H46.1577C47.2071 48.0822 48.0609 47.2854 48.0609 46.3059C48.0609 46.0202 47.9878 45.7502 47.8588 45.5108C48.6647 45.3043 49.2586 44.6149 49.2586 43.7981C49.2586 43.4019 49.1188 43.0356 48.8829 42.7398V36.1181C48.8829 35.8296 48.6322 35.5956 48.3231 35.5956C48.014 35.5956 47.7633 35.8296 47.7633 36.1181V42.0633C47.6318 42.0364 47.4954 42.0218 47.3553 42.0218H47.337C47.4455 41.7986 47.5065 41.5511 47.5065 41.2904C47.5065 40.3108 46.6527 39.514 45.6032 39.514H44.7034C45.6589 39.1316 46.33 38.2451 46.33 37.2149C46.33 35.8362 45.1282 34.7145 43.651 34.7145C42.1738 34.7145 40.972 35.8362 40.972 37.2149C40.972 38.2451 41.6431 39.1316 42.5986 39.514H39.5386V29.5797C40.5386 29.3763 41.3277 28.6399 41.5456 27.7065H45.7563C45.9742 28.6399 46.7633 29.3763 47.7633 29.5797V31.2041C47.7633 31.4926 48.014 31.7265 48.3231 31.7265C48.6322 31.7265 48.8829 31.4926 48.8829 31.2041V29.1132C48.8829 28.8247 48.6322 28.5908 48.3231 28.5908C47.492 28.5908 46.8159 27.9597 46.8159 27.184C46.8159 26.8955 46.5652 26.6616 46.2561 26.6616H41.0458C40.7367 26.6616 40.4861 26.8955 40.4861 27.184C40.4861 27.9597 39.81 28.5908 38.9789 28.5908C38.6698 28.5908 38.4191 28.8247 38.4191 29.1132V39.514H37.3257V24.8852L49.9766 24.8847V49.5451ZM43.6511 38.6704C42.7912 38.6704 42.0917 38.0175 42.0917 37.2149C42.0917 36.4124 42.7913 35.7595 43.6511 35.7595C44.5109 35.7595 45.2105 36.4124 45.2105 37.2149C45.2105 38.0174 44.511 38.6704 43.6511 38.6704Z" fill="white"/>
</g>
<defs>
<clipPath id="clip0_351_667">
<rect width="28.6611" height="26.7503" fill="white" transform="translate(22.4351 23.8396)"/>
</clipPath>
</defs>
</svg>
