<svg width="25" height="58" viewBox="0 0 25 58" fill="none" xmlns="http://www.w3.org/2000/svg">
<path d="M12.0188 9.66917C14.6835 9.66917 16.8437 7.50897 16.8437 4.84423C16.8437 2.17949 14.6835 0.0192871 12.0188 0.0192871C9.35405 0.0192871 7.19385 2.17949 7.19385 4.84423C7.19385 7.50897 9.35405 9.66917 12.0188 9.66917Z" fill="#35C293"/>
<path d="M13.6997 11.9698C12.4975 11.7257 11.1904 11.7364 10.0096 12.0147C1.98799 12.9547 -0.616644 22.2395 0.118819 29.319C0.437841 32.3797 5.26278 32.4118 4.94055 29.319C4.67291 26.739 4.78746 22.8454 6.15883 20.0781C6.15883 23.4417 6.15883 26.8054 6.15883 30.1679C6.15883 30.2868 6.17061 30.3981 6.17596 30.5126C6.17275 30.5672 6.1599 30.6133 6.1599 30.6689C6.1599 38.6755 6.14598 46.6789 5.81519 54.6791C5.66852 58.2355 11.1829 58.2215 11.3285 54.6791C11.5876 48.4089 11.6529 42.1355 11.6678 35.8611C11.9291 35.8782 12.1903 35.8782 12.4515 35.8632C12.4675 42.1377 12.5307 48.4111 12.7876 54.6791C12.9343 58.2215 18.4487 58.2355 18.3009 54.6791C17.9701 46.6789 17.9584 38.6755 17.9584 30.6689C17.9584 30.4206 17.9252 30.1947 17.8749 29.9774C17.8674 26.5013 17.7346 23.0221 17.7753 19.5481C19.4175 22.3283 19.5674 26.5688 19.2826 29.3169C18.9593 32.4075 23.7853 32.3765 24.1044 29.3169C24.8569 22.0907 22.1271 12.565 13.6997 11.9698Z" fill="#35C293"/>
</svg>
