<svg width="39" height="28" viewBox="0 0 39 28" fill="none" xmlns="http://www.w3.org/2000/svg">
<path d="M19.7162 13.1113C22.928 13.1113 25.5316 10.3168 25.5316 6.86952C25.5316 3.42225 22.928 0.627686 19.7162 0.627686C16.5045 0.627686 13.9009 3.42225 13.9009 6.86952C13.9009 10.3168 16.5045 13.1113 19.7162 13.1113Z" fill="#F17A5D"/>
<path d="M31.3447 16.6782C33.6388 16.6782 35.4985 14.6821 35.4985 12.2198C35.4985 9.75745 33.6388 7.76135 31.3447 7.76135C29.0506 7.76135 27.1909 9.75745 27.1909 12.2198C27.1909 14.6821 29.0506 16.6782 31.3447 16.6782Z" fill="#F17A5D"/>
<path d="M8.20213 16.6784C10.4962 16.6784 12.3559 14.6823 12.3559 12.22C12.3559 9.75769 10.4962 7.7616 8.20213 7.7616C5.90806 7.7616 4.04834 9.75769 4.04834 12.22C4.04834 14.6823 5.90806 16.6784 8.20213 16.6784Z" fill="#F17A5D"/>
<path d="M19.715 14.894C13.76 14.894 8.91504 20.0944 8.91504 26.486C8.91504 26.9782 9.28725 27.3777 9.74583 27.3777H29.6841C30.1427 27.3777 30.5149 26.9782 30.5149 26.486C30.5149 20.0944 25.6699 14.894 19.715 14.894Z" fill="#F17A5D"/>
<path d="M9.63498 18.6544C9.12656 18.5385 8.6098 18.4618 8.08478 18.4618C3.96253 18.4618 0.60791 22.0624 0.60791 26.487C0.60791 26.9792 0.980118 27.3787 1.4387 27.3787H7.40688C7.31381 27.0987 7.25399 26.8009 7.25399 26.487C7.25399 23.5605 8.14459 20.8586 9.63498 18.6544Z" fill="#F17A5D"/>
<path d="M31.3456 18.4618C30.8206 18.4618 30.3038 18.5385 29.7954 18.6544C31.2858 20.8586 32.1764 23.5605 32.1764 26.487C32.1764 26.8009 32.1166 27.0986 32.0235 27.3787H37.9917C38.4503 27.3787 38.8225 26.9792 38.8225 26.487C38.8225 22.0624 35.4679 18.4618 31.3456 18.4618Z" fill="#F17A5D"/>
</svg>
