<svg width="39" height="28" viewBox="0 0 39 28" fill="none" xmlns="http://www.w3.org/2000/svg">
<path d="M19.3754 13.1111C22.5872 13.1111 25.1908 10.3165 25.1908 6.86927C25.1908 3.422 22.5872 0.627441 19.3754 0.627441C16.1637 0.627441 13.5601 3.422 13.5601 6.86927C13.5601 10.3165 16.1637 13.1111 19.3754 13.1111Z" fill="#588EDE"/>
<path d="M31.0029 16.678C33.297 16.678 35.1567 14.6819 35.1567 12.2196C35.1567 9.75733 33.297 7.76123 31.0029 7.76123C28.7088 7.76123 26.8491 9.75733 26.8491 12.2196C26.8491 14.6819 28.7088 16.678 31.0029 16.678Z" fill="#588EDE"/>
<path d="M7.85985 16.678C10.1539 16.678 12.0136 14.6819 12.0136 12.2196C12.0136 9.75733 10.1539 7.76123 7.85985 7.76123C5.56577 7.76123 3.70605 9.75733 3.70605 12.2196C3.70605 14.6819 5.56577 16.678 7.85985 16.678Z" fill="#588EDE"/>
<path d="M19.3737 14.8938C13.4187 14.8938 8.57373 20.0941 8.57373 26.4857C8.57373 26.9779 8.94594 27.3775 9.40452 27.3775H29.3428C29.8014 27.3775 30.1736 26.9779 30.1736 26.4857C30.1736 20.0941 25.3286 14.8938 19.3737 14.8938Z" fill="#588EDE"/>
<path d="M9.29465 18.6543C8.78622 18.5383 8.26946 18.4617 7.74445 18.4617C3.6222 18.4617 0.267578 22.0623 0.267578 26.4868C0.267578 26.9791 0.639786 27.3786 1.09837 27.3786H7.06654C6.97347 27.0986 6.91366 26.8007 6.91366 26.4868C6.91366 23.5603 7.80426 20.8585 9.29465 18.6543Z" fill="#588EDE"/>
<path d="M31.0043 18.4617C30.4793 18.4617 29.9625 18.5383 29.4541 18.6543C30.9445 20.8585 31.8351 23.5603 31.8351 26.4868C31.8351 26.8007 31.7753 27.0985 31.6822 27.3786H37.6504C38.109 27.3786 38.4812 26.9791 38.4812 26.4868C38.4812 22.0623 35.1266 18.4617 31.0043 18.4617Z" fill="#588EDE"/>
</svg>
