<svg width="39" height="28" viewBox="0 0 39 28" fill="none" xmlns="http://www.w3.org/2000/svg">
<path d="M19.3754 12.9665C22.5872 12.9665 25.1908 10.1719 25.1908 6.72462C25.1908 3.27735 22.5872 0.482788 19.3754 0.482788C16.1637 0.482788 13.5601 3.27735 13.5601 6.72462C13.5601 10.1719 16.1637 12.9665 19.3754 12.9665Z" fill="#8CC4B1"/>
<path d="M31.0029 16.5335C33.297 16.5335 35.1567 14.5374 35.1567 12.0751C35.1567 9.61279 33.297 7.6167 31.0029 7.6167C28.7088 7.6167 26.8491 9.61279 26.8491 12.0751C26.8491 14.5374 28.7088 16.5335 31.0029 16.5335Z" fill="#8CC4B1"/>
<path d="M7.85985 16.5335C10.1539 16.5335 12.0136 14.5374 12.0136 12.0751C12.0136 9.61279 10.1539 7.6167 7.85985 7.6167C5.56577 7.6167 3.70605 9.61279 3.70605 12.0751C3.70605 14.5374 5.56577 16.5335 7.85985 16.5335Z" fill="#8CC4B1"/>
<path d="M19.3737 14.7491C13.4187 14.7491 8.57373 19.9495 8.57373 26.3411C8.57373 26.8333 8.94594 27.2328 9.40452 27.2328H29.3428C29.8014 27.2328 30.1736 26.8333 30.1736 26.3411C30.1736 19.9495 25.3286 14.7491 19.3737 14.7491Z" fill="#8CC4B1"/>
<path d="M9.29465 18.5091C8.78622 18.3932 8.26946 18.3165 7.74445 18.3165C3.6222 18.3165 0.267578 21.9172 0.267578 26.3417C0.267578 26.8339 0.639786 27.2334 1.09837 27.2334H7.06654C6.97347 26.9535 6.91366 26.6556 6.91366 26.3417C6.91366 23.4152 7.80426 20.7134 9.29465 18.5091Z" fill="#8CC4B1"/>
<path d="M31.0043 18.3168C30.4793 18.3168 29.9625 18.3934 29.4541 18.5094C30.9445 20.7136 31.8351 23.4154 31.8351 26.3419C31.8351 26.6558 31.7753 26.9536 31.6822 27.2337H37.6504C38.109 27.2337 38.4812 26.8342 38.4812 26.3419C38.4812 21.9174 35.1266 18.3168 31.0043 18.3168Z" fill="#8CC4B1"/>
</svg>
