<svg width="39" height="28" viewBox="0 0 39 28" fill="none" xmlns="http://www.w3.org/2000/svg">
<path d="M19.7162 12.9661C22.928 12.9661 25.5316 10.1715 25.5316 6.72425C25.5316 3.27698 22.928 0.482422 19.7162 0.482422C16.5045 0.482422 13.9009 3.27698 13.9009 6.72425C13.9009 10.1715 16.5045 12.9661 19.7162 12.9661Z" fill="#978CD7"/>
<path d="M31.3447 16.5333C33.6388 16.5333 35.4985 14.5372 35.4985 12.0749C35.4985 9.61255 33.6388 7.61646 31.3447 7.61646C29.0506 7.61646 27.1909 9.61255 27.1909 12.0749C27.1909 14.5372 29.0506 16.5333 31.3447 16.5333Z" fill="#978CD7"/>
<path d="M8.20213 16.5331C10.4962 16.5331 12.3559 14.537 12.3559 12.0747C12.3559 9.61243 10.4962 7.61633 8.20213 7.61633C5.90806 7.61633 4.04834 9.61243 4.04834 12.0747C4.04834 14.537 5.90806 16.5331 8.20213 16.5331Z" fill="#978CD7"/>
<path d="M19.715 14.7488C13.76 14.7488 8.91504 19.9491 8.91504 26.3407C8.91504 26.8329 9.28725 27.2324 9.74583 27.2324H29.6841C30.1427 27.2324 30.5149 26.8329 30.5149 26.3407C30.5149 19.9491 25.6699 14.7488 19.715 14.7488Z" fill="#978CD7"/>
<path d="M9.63498 18.5093C9.12656 18.3933 8.6098 18.3167 8.08478 18.3167C3.96253 18.3167 0.60791 21.9173 0.60791 26.3418C0.60791 26.834 0.980118 27.2335 1.4387 27.2335H7.40688C7.31381 26.9536 7.25399 26.6557 7.25399 26.3418C7.25399 23.4153 8.14459 20.7135 9.63498 18.5093Z" fill="#978CD7"/>
<path d="M31.3456 18.3167C30.8206 18.3167 30.3038 18.3933 29.7954 18.5093C31.2858 20.7135 32.1764 23.4153 32.1764 26.3418C32.1764 26.6557 32.1166 26.9535 32.0235 27.2335H37.9917C38.4503 27.2335 38.8225 26.834 38.8225 26.3418C38.8225 21.9173 35.4679 18.3167 31.3456 18.3167Z" fill="#978CD7"/>
</svg>
