<svg width="68" height="44" viewBox="0 0 68 44" fill="none" xmlns="http://www.w3.org/2000/svg">
<path d="M58.6645 18.9509C60.6508 17.5551 61.9661 15.2332 61.9661 12.616C61.9661 8.33463 58.5034 4.87193 54.222 4.87193C49.9406 4.87193 46.4779 8.33463 46.4779 12.616C46.4779 15.2332 47.7798 17.5551 49.7796 18.9509C48.0751 19.5414 46.5182 20.4541 45.2029 21.6351C43.391 20.0917 41.2571 18.9106 38.9218 18.2127C41.7537 16.4948 43.6595 13.3676 43.6595 9.81097C43.6595 4.38876 39.2707 0 33.8485 0C28.4263 0 24.0375 4.40219 24.0375 9.81097C24.0375 13.3676 25.9299 16.4948 28.7753 18.2127C26.4668 18.9106 24.3597 20.0783 22.5612 21.5949C21.2459 20.4406 19.7159 19.5414 18.0382 18.9643C20.0246 17.5685 21.3399 15.2466 21.3399 12.6294C21.3399 8.34805 17.8772 4.88535 13.5958 4.88535C9.31438 4.88535 5.85168 8.34805 5.85168 12.6294C5.85168 15.2466 7.15355 17.5685 9.15332 18.9643C3.82507 20.803 0 25.8628 0 31.8085V32.6943C0 32.7211 0.0268426 32.748 0.0536852 32.748H16.4679C16.374 33.4861 16.3203 34.2511 16.3203 35.0162V35.9288C16.3203 39.8747 19.5146 43.0689 23.4604 43.0689H44.2634C48.2093 43.0689 51.4036 39.8747 51.4036 35.9288V35.0162C51.4036 34.2511 51.3499 33.4861 51.2559 32.748H67.7775C67.8044 32.748 67.8312 32.7211 67.8312 32.6943V31.8085C67.8044 25.8494 63.9927 20.7896 58.6645 18.9509ZM48.6254 12.6026C48.6254 9.5157 51.1351 7.00592 54.222 7.00592C57.3089 7.00592 59.8187 9.5157 59.8187 12.6026C59.8187 15.6492 57.3626 18.1322 54.3294 18.1993C54.2891 18.1993 54.2623 18.1993 54.222 18.1993C54.1818 18.1993 54.1549 18.1993 54.1147 18.1993C51.068 18.1456 48.6254 15.6627 48.6254 12.6026ZM26.1581 9.81097C26.1581 5.58326 29.594 2.14741 33.8217 2.14741C38.0494 2.14741 41.4852 5.58326 41.4852 9.81097C41.4852 13.891 38.2775 17.2329 34.2646 17.4611C34.1169 17.4611 33.9693 17.4611 33.8217 17.4611C33.674 17.4611 33.5264 17.4611 33.3788 17.4611C29.3658 17.2329 26.1581 13.891 26.1581 9.81097ZM7.95883 12.6026C7.95883 9.5157 10.4686 7.00592 13.5555 7.00592C16.6424 7.00592 19.1522 9.5157 19.1522 12.6026C19.1522 15.6492 16.6961 18.1322 13.6629 18.1993C13.6226 18.1993 13.5958 18.1993 13.5555 18.1993C13.5152 18.1993 13.4884 18.1993 13.4481 18.1993C10.4149 18.1456 7.95883 15.6627 7.95883 12.6026ZM16.8437 30.5871H2.17425C2.77821 24.8697 7.60987 20.387 13.475 20.3467C13.5018 20.3467 13.5287 20.3467 13.5555 20.3467C13.5824 20.3467 13.6092 20.3467 13.636 20.3467C16.4277 20.3601 18.9777 21.3935 20.9506 23.0712C19.018 25.1649 17.5819 27.7418 16.8437 30.5871ZM49.2293 35.9288C49.2293 38.6802 46.988 40.9215 44.2366 40.9215H23.4336C20.6822 40.9215 18.4409 38.6802 18.4409 35.9288V35.0162C18.4409 26.6815 25.0978 19.8635 33.3788 19.6219C33.5264 19.6354 33.6875 19.6354 33.8351 19.6354C33.9827 19.6354 34.1438 19.6354 34.2914 19.6219C42.5723 19.8635 49.2293 26.6815 49.2293 35.0162V35.9288ZM50.8264 30.5871C50.0883 27.7552 48.679 25.2186 46.7598 23.1249C48.7461 21.407 51.323 20.3735 54.1415 20.3467C54.1683 20.3467 54.1952 20.3467 54.222 20.3467C54.2489 20.3467 54.2757 20.3467 54.3026 20.3467C60.1677 20.387 64.9993 24.8697 65.6033 30.5871H50.8264Z" fill="#284E78"/>
</svg>
