<svg width="31" height="69" viewBox="0 0 31 69" fill="none" xmlns="http://www.w3.org/2000/svg">
<path d="M15.388 11.616C18.5956 11.616 21.1958 9.01573 21.1958 5.80813C21.1958 2.60052 18.5956 0.000244141 15.388 0.000244141C12.1804 0.000244141 9.58008 2.60052 9.58008 5.80813C9.58008 9.01573 12.1804 11.616 15.388 11.616Z" fill="#A3E193"/>
<path d="M17.4113 14.3855C15.9642 14.0916 14.3908 14.1045 12.9694 14.4396C3.31364 15.571 0.178387 26.7473 1.06368 35.2691C1.44769 38.9533 7.25557 38.9919 6.86769 35.2691C6.54554 32.1635 6.68342 27.4767 8.33416 24.1456C8.33416 28.1945 8.33416 32.2434 8.33416 36.291C8.33416 36.434 8.34834 36.568 8.35478 36.7059C8.35092 36.7716 8.33545 36.827 8.33545 36.894C8.33545 46.5318 8.3187 56.1656 7.92051 65.7956C7.74397 70.0764 14.3817 70.0597 14.557 65.7956C14.8688 58.248 14.9474 50.6966 14.9655 43.1439C15.2799 43.1645 15.5943 43.1645 15.9088 43.1465C15.9281 50.6992 16.0041 58.2506 16.3134 65.7956C16.4899 70.0597 23.1277 70.0764 22.9499 65.7956C22.5517 56.1656 22.5375 46.5318 22.5375 36.894C22.5375 36.5951 22.4976 36.3232 22.437 36.0616C22.428 31.8774 22.2682 27.6893 22.3172 23.5077C24.2939 26.8543 24.4743 31.9586 24.1315 35.2665C23.7424 38.9868 29.5515 38.9494 29.9356 35.2665C30.8415 26.5682 27.5555 15.1019 17.4113 14.3855Z" fill="#A3E193"/>
</svg>
