<svg width="31" height="69" viewBox="0 0 31 69" fill="none" xmlns="http://www.w3.org/2000/svg">
<path d="M15.388 11.6156C18.5956 11.6156 21.1958 9.01536 21.1958 5.80776C21.1958 2.60015 18.5956 -0.00012207 15.388 -0.00012207C12.1804 -0.00012207 9.58008 2.60015 9.58008 5.80776C9.58008 9.01536 12.1804 11.6156 15.388 11.6156Z" fill="#FF8162"/>
<path d="M17.4113 14.385C15.9642 14.0912 14.3908 14.104 12.9694 14.4391C3.31364 15.5705 0.178387 26.7468 1.06368 35.2686C1.44769 38.9528 7.25557 38.9915 6.86769 35.2686C6.54554 32.163 6.68342 27.4762 8.33416 24.1451C8.33416 28.194 8.33416 32.2429 8.33416 36.2905C8.33416 36.4335 8.34834 36.5675 8.35478 36.7054C8.35092 36.7711 8.33545 36.8266 8.33545 36.8936C8.33545 46.5313 8.3187 56.1651 7.92051 65.7951C7.74397 70.0759 14.3817 70.0592 14.557 65.7951C14.8688 58.2475 14.9474 50.6961 14.9655 43.1434C15.2799 43.1641 15.5943 43.1641 15.9088 43.146C15.9281 50.6987 16.0041 58.2501 16.3134 65.7951C16.4899 70.0592 23.1277 70.0759 22.9499 65.7951C22.5517 56.1651 22.5375 46.5313 22.5375 36.8936C22.5375 36.5946 22.4976 36.3227 22.437 36.0611C22.428 31.8769 22.2682 27.6888 22.3172 23.5072C24.2939 26.8538 24.4743 31.9581 24.1315 35.266C23.7424 38.9863 29.5515 38.9489 29.9356 35.266C30.8415 26.5677 27.5555 15.1014 17.4113 14.385Z" fill="#FF8162"/>
</svg>
