<svg width="26" height="58" viewBox="0 0 26 58" fill="none" xmlns="http://www.w3.org/2000/svg">
<path d="M12.9748 10.3109C15.6396 10.3109 17.7998 8.15069 17.7998 5.48595C17.7998 2.82121 15.6396 0.661011 12.9748 0.661011C10.3101 0.661011 8.1499 2.82121 8.1499 5.48595C8.1499 8.15069 10.3101 10.3109 12.9748 10.3109Z" fill="#007AFF"/>
<path d="M14.6558 12.6114C13.4536 12.3673 12.1464 12.378 10.9656 12.6563C2.94404 13.5963 0.33941 22.8811 1.07487 29.9606C1.3939 33.0213 6.21884 33.0534 5.8966 29.9606C5.62897 27.3806 5.74352 23.487 7.11488 20.7197C7.11488 24.0833 7.11488 27.447 7.11488 30.8095C7.11488 30.9284 7.12666 31.0397 7.13201 31.1542C7.1288 31.2088 7.11595 31.2549 7.11595 31.3105C7.11595 39.3171 7.10204 47.3205 6.77124 55.3207C6.62458 58.8771 12.1389 58.8631 12.2845 55.3207C12.5436 49.0505 12.6089 42.7771 12.6239 36.5027C12.8851 36.5198 13.1463 36.5198 13.4075 36.5048C13.4236 42.7793 13.4868 49.0527 13.7437 55.3207C13.8904 58.8631 19.4047 58.8771 19.257 55.3207C18.9262 47.3205 18.9144 39.3171 18.9144 31.3105C18.9144 31.0622 18.8812 30.8363 18.8309 30.619C18.8234 27.1429 18.6907 23.6637 18.7314 20.1897C20.3736 22.9699 20.5234 27.2104 20.2387 29.9585C19.9154 33.0491 24.7414 33.0181 25.0604 29.9585C25.813 22.7323 23.0831 13.2066 14.6558 12.6114Z" fill="#007AFF"/>
</svg>
